PathFileType	4	(X/Y/Z)	C:\Users\s5001683\Documents\PhD\FASHiON\BaselineData\3. CleanedGaitData\ElaboratedData\FAS-906\Session 1\staticElaborations\StaticCalibration\Static\\StaticCalibration.trc
DataRate	CameraRate	NumFrames	NumMarkers	Units	OrigDataRate	DataStartFrame
120	120	4	90	mm	120	2
Frame#	Time	RFHD			LFHD			RBHD			LBHD			C7			T10			CLAV			STRN			RASI			LASI			RPSI			LPSI			RTH1			RTH2			RTH3			RTH4			RTH5			RTH6			RMFC			RLFC			RTB1			RTB2			RTB3			RTB4			RTB5			RTB6			RMMAL			RLMAL			RCAL			RMT1			RMT23			RMT5			LMT1			LMT23			LMT5			LCAL			LMMAL			LLMAL			LTB1			LTB2			LTB3			LTB4			LTB5			LTB6			LMFC			LLFC			LTH1			LTH2			LTH3			LTH4			LTH5			LTH6			LACR			LASH			LPSH			LUA1			LUA2			LUA3			LMEL			LLEL			LFA1			LFA3			LFA2			LWRU			LWRR			RACR			RASH			RPSH			RUA1			RUA2			RUA3			RMEL			RLEL			RFA1			RFA2			RFA3			RWRU			RWRR			LAJC			RAJC			LEJC			REJC			LHJC			RHJC			LKJC			RKJC			LSJC			RSJC			LWJC			RWJC		
		X1	Y1	Z1	X2	Y2	Z2	X3	Y3	Z3	X4	Y4	Z4	X5	Y5	Z5	X6	Y6	Z6	X7	Y7	Z7	X8	Y8	Z8	X9	Y9	Z9	X10	Y10	Z10	X11	Y11	Z11	X12	Y12	Z12	X13	Y13	Z13	X14	Y14	Z14	X15	Y15	Z15	X16	Y16	Z16	X17	Y17	Z17	X18	Y18	Z18	X19	Y19	Z19	X20	Y20	Z20	X21	Y21	Z21	X22	Y22	Z22	X23	Y23	Z23	X24	Y24	Z24	X25	Y25	Z25	X26	Y26	Z26	X27	Y27	Z27	X28	Y28	Z28	X29	Y29	Z29	X30	Y30	Z30	X31	Y31	Z31	X32	Y32	Z32	X33	Y33	Z33	X34	Y34	Z34	X35	Y35	Z35	X36	Y36	Z36	X37	Y37	Z37	X38	Y38	Z38	X39	Y39	Z39	X40	Y40	Z40	X41	Y41	Z41	X42	Y42	Z42	X43	Y43	Z43	X44	Y44	Z44	X45	Y45	Z45	X46	Y46	Z46	X47	Y47	Z47	X48	Y48	Z48	X49	Y49	Z49	X50	Y50	Z50	X51	Y51	Z51	X52	Y52	Z52	X53	Y53	Z53	X54	Y54	Z54	X55	Y55	Z55	X56	Y56	Z56	X57	Y57	Z57	X58	Y58	Z58	X59	Y59	Z59	X60	Y60	Z60	X61	Y61	Z61	X62	Y62	Z62	X63	Y63	Z63	X64	Y64	Z64	X65	Y65	Z65	X66	Y66	Z66	X67	Y67	Z67	X68	Y68	Z68	X69	Y69	Z69	X70	Y70	Z70	X71	Y71	Z71	X72	Y72	Z72	X73	Y73	Z73	X74	Y74	Z74	X75	Y75	Z75	X76	Y76	Z76	X77	Y77	Z77	X78	Y78	Z78	X79	Y79	Z79	X80	Y80	Z80	X81	Y81	Z81	X82	Y82	Z82	X83	Y83	Z83	X84	Y84	Z84	X85	Y85	Z85	X86	Y86	Z86	X87	Y87	Z87	X88	Y88	Z88	X89	Y89	Z89	X90	Y90	Z90	

54	0.441667	787.194275	1614.524658	-187.964325	794.906067	1616.588867	-293.861084	641.898438	1544.329102	-184.600952	640.640808	1546.755981	-323.608185	620.163879	1421.172729	-251.721786	617.244385	1126.236206	-251.555145	760.194092	1352.078369	-248.215714	811.286987	1144.554565	-246.028641	780.671387	940.701050	-108.212074	777.662048	946.375854	-379.898773	608.430481	972.180786	-183.688660	606.028320	983.749207	-294.344696	742.234680	718.525146	-59.097904	776.804443	651.155090	-98.245575	723.776611	591.386841	-84.527641	814.488220	727.065247	-158.312027	778.060791	672.346497	-214.159241	789.283691	596.223877	-171.531296	669.838257	448.528839	-223.183304	698.685242	451.408264	-106.001663	689.782837	333.047729	-187.203033	697.326172	269.279785	-120.649200	677.654663	202.731964	-176.263809	662.185425	351.609802	-85.624931	605.280518	288.777283	-107.739388	657.962402	221.989899	-101.753922	650.039795	107.455101	-204.660233	634.737549	88.112320	-123.929283	578.004395	67.485565	-169.441483	783.304382	48.105381	-199.343246	791.030579	57.368748	-158.751907	770.671509	46.979904	-105.938454	777.526062	54.897373	-306.572662	781.828003	56.895477	-359.995697	754.179932	38.846478	-402.274719	573.974670	64.351738	-322.997070	645.145081	98.210648	-286.425537	626.121521	95.294174	-363.823273	699.214233	371.176758	-303.828033	712.742981	305.041351	-355.161652	678.441528	241.539932	-309.622559	659.610168	315.776367	-407.225159	602.285706	255.803909	-379.998199	649.984680	186.534927	-381.239594	671.967712	437.228577	-275.195648	682.439514	450.933258	-395.243683	685.255798	735.802063	-439.337891	742.225281	675.740784	-417.632477	695.430664	607.560913	-410.000824	793.591919	808.995911	-396.687744	809.722778	740.268311	-341.635803	781.208191	671.573730	-390.850769	689.096375	1403.317261	-390.191803	767.592590	1284.621094	-399.772369	616.982056	1246.568359	-386.277222	675.619080	1291.853149	-474.082397	748.842773	1290.602783	-516.216125	755.224976	1203.005005	-538.004456	823.239258	1130.592651	-535.666199	823.449280	1165.682129	-587.063232	902.307251	1107.230347	-653.269531	945.729919	1138.960571	-623.169189	907.745972	1144.541504	-636.074097	988.999878	1063.950439	-699.803528	1024.749023	1065.133179	-648.365540	660.371521	1398.398438	-108.490746	751.818481	1289.885376	-107.250023	615.317078	1245.440063	-101.456322	651.179016	1288.836670	-29.557247	717.856995	1296.422974	23.036051	724.174561	1215.327271	55.590816	784.656799	1125.611938	58.880421	794.138855	1175.634521	111.904762	893.347656	1098.882568	180.850754	897.997925	1142.523682	156.423431	935.526794	1134.003906	137.449142	961.693787	1065.569702	210.263199	1009.937805	1082.034790	164.569000	635.633301	96.752411	-325.124405	642.388672	97.783710	-164.294758	823.344269	1148.137390	-561.364716	789.397827	1150.623230	85.392591	708.920580	865.179530	-341.922815	711.068415	861.129289	-148.013673	677.203613	444.080917	-335.219666	684.261749	449.968552	-164.592484	692.287323	1265.594727	-393.024796	683.567780	1267.662720	-104.353172	1006.874451	1064.541809	-674.084534	985.815796	1073.802246	187.416100	
55	0.450000	786.892517	1614.558350	-187.896683	794.597534	1616.607910	-293.828796	641.582520	1544.337402	-184.525101	640.328369	1546.772339	-323.552032	619.923950	1421.169067	-251.674988	616.960571	1126.263550	-251.471619	759.904358	1352.088379	-248.161209	811.086182	1144.590088	-245.981491	780.440125	940.668152	-108.257309	777.485474	946.418274	-379.860229	608.216248	972.129272	-183.629242	605.792053	983.723572	-294.270416	742.162598	718.537170	-59.064270	776.779785	651.154053	-98.230103	723.706238	591.390625	-84.499512	814.428101	727.080872	-158.255585	778.125366	672.449585	-214.237183	789.215576	596.229431	-171.505615	669.802124	448.491608	-223.168365	698.645569	451.398560	-105.990524	689.730591	333.055939	-187.188705	697.304077	269.274902	-120.656662	677.593140	202.699051	-176.225769	662.117249	351.591766	-85.621407	605.196594	288.726074	-107.789040	657.930054	221.999359	-101.775948	650.038574	107.438507	-204.594330	634.747437	88.110451	-123.933098	578.013062	67.481804	-169.458740	783.297974	48.117287	-199.343307	790.968384	57.369030	-158.717133	770.666809	46.988091	-105.933739	777.530396	54.904041	-306.558868	781.803223	56.889900	-360.033752	754.160339	38.840069	-402.265320	573.959656	64.337532	-322.989166	645.081726	98.149513	-286.400604	626.106445	95.312073	-363.830078	699.155334	371.149261	-303.776398	712.696655	305.016357	-355.106262	678.462830	241.530579	-309.637512	659.598511	315.759155	-407.199005	602.267761	255.807816	-379.997345	649.975647	186.494110	-381.271637	671.627197	437.128448	-275.682861	682.368530	450.934174	-395.207947	685.146606	735.810730	-439.351685	742.086731	675.730103	-417.588837	695.388428	607.571289	-410.011597	793.487488	809.063782	-396.647919	809.603455	740.330017	-341.583405	781.131958	671.621704	-390.820312	688.856140	1403.322998	-390.166962	767.347229	1284.626099	-399.697235	616.738525	1246.563354	-385.901703	675.446533	1291.951050	-474.100098	748.648010	1290.663330	-516.216309	755.039490	1203.088135	-538.015991	823.081177	1130.718262	-535.643494	823.286926	1165.805542	-587.046021	902.157043	1107.376099	-653.245239	945.566345	1139.110962	-623.145325	907.594727	1144.730835	-636.096008	988.892883	1064.151489	-699.785645	1024.652710	1065.320313	-648.361328	660.158264	1398.392334	-108.434685	751.509888	1289.869141	-107.201660	615.081909	1245.373047	-101.487427	650.872925	1288.841553	-29.418766	717.612366	1296.409058	23.015009	723.922668	1215.308838	55.617390	784.448486	1125.597778	58.879539	793.894714	1175.635010	111.922485	893.142883	1098.895630	180.865692	897.782593	1142.562378	156.414200	935.306946	1134.038452	137.470734	961.500610	1065.613525	210.249969	1009.712280	1082.071167	164.556473	635.594086	96.730793	-325.115341	642.393005	97.774479	-164.263714	823.184052	1148.261902	-561.344757	789.171600	1150.616394	85.401012	708.757676	865.219428	-341.935047	710.866528	861.115338	-148.081254	676.997864	444.031311	-335.445404	684.223846	449.945084	-164.579445	692.042877	1265.594727	-392.799469	683.295898	1267.621094	-104.344543	1006.772797	1064.735901	-674.073486	985.606445	1073.842346	187.403221	
56	0.458333	786.606812	1614.582520	-187.851242	794.267029	1616.606079	-293.778687	641.294373	1544.329834	-184.512360	640.088623	1546.758789	-323.549713	619.656799	1421.164185	-251.619873	616.744019	1126.246582	-251.418869	759.663757	1352.094604	-248.110550	810.859436	1144.607788	-245.953934	780.191528	940.735901	-108.161491	777.283447	946.451416	-379.842194	608.021179	972.130249	-183.639496	605.619751	983.713257	-294.221283	742.089722	718.548706	-59.051659	776.685974	651.189453	-98.209991	723.649902	591.392090	-84.469109	814.309814	727.117859	-158.258713	778.037109	672.450623	-214.211441	789.157471	596.268555	-171.478607	669.632629	448.505920	-223.162918	698.553711	451.372345	-105.952240	689.655945	333.033600	-187.155884	697.221191	269.219666	-120.565491	677.572632	202.704758	-176.207199	662.105164	351.579102	-85.588943	605.166931	288.743469	-107.700439	657.893127	221.998550	-101.702095	650.036499	107.458969	-204.607010	634.711304	88.091743	-123.925987	577.995178	67.497375	-169.454407	783.282043	48.118141	-199.324402	790.954834	57.358673	-158.717453	770.651428	46.984844	-105.896202	777.502869	54.899422	-306.627197	781.811279	56.903908	-360.014313	754.167786	38.840206	-402.277649	573.977600	64.327164	-323.042175	645.125793	98.173347	-286.420441	626.123169	95.299477	-363.811401	699.133301	371.159119	-303.783966	712.645508	304.991608	-355.084167	678.377136	241.513443	-309.589905	659.543579	315.751801	-407.183716	602.254700	255.776688	-379.966553	649.946899	186.495300	-381.216248	671.424744	437.133423	-275.740265	682.304749	450.917908	-395.171448	684.961975	735.754089	-439.296204	742.029541	675.767578	-417.567627	695.253296	607.527344	-409.892853	793.362610	809.065247	-396.666870	809.492493	740.363037	-341.596283	781.006165	671.640686	-390.834229	688.636047	1403.370117	-390.089142	767.148499	1284.638916	-399.673676	616.536072	1246.586792	-385.922760	675.285889	1291.952148	-474.117920	748.393433	1290.734741	-516.135620	754.856262	1203.135620	-538.006226	822.894592	1130.820923	-535.662537	823.160583	1165.936646	-587.061157	902.035095	1107.519287	-653.242737	945.444092	1139.266724	-623.124146	907.450684	1144.863892	-636.072144	988.777222	1064.335327	-699.777283	1024.530273	1065.491577	-648.353333	659.858215	1398.363892	-108.380928	751.295166	1289.843262	-107.190491	614.828247	1245.372803	-101.470535	650.591248	1288.772583	-29.443630	717.324341	1296.374512	23.112385	723.641052	1215.303101	55.669250	784.241882	1125.598022	58.929340	793.691528	1175.644287	111.931465	892.980896	1098.926514	180.882843	897.565613	1142.577759	156.457153	935.052979	1134.056641	137.527969	961.293762	1065.663696	210.285706	1009.532471	1082.119629	164.549576	635.624481	96.736412	-325.115921	642.373901	97.775356	-164.266499	823.027588	1148.378784	-561.361847	788.966705	1150.621155	85.430403	708.578328	865.214084	-341.906393	710.653897	861.134781	-148.001195	676.864746	444.025665	-335.455856	684.093170	449.939133	-164.557579	691.842285	1265.612854	-392.798218	683.061707	1267.608032	-104.330513	1006.653748	1064.913452	-674.065308	985.413116	1073.891663	187.417641	
57	0.466667	786.291138	1614.585693	-187.839127	793.991333	1616.600220	-293.685852	640.965210	1544.344238	-184.470490	639.814026	1546.766235	-323.436646	619.419617	1421.159546	-251.589493	616.566528	1126.209473	-251.371979	759.392944	1352.082153	-248.060562	810.604614	1144.614136	-245.923370	779.981018	940.709778	-108.045807	777.087830	946.487549	-379.835266	607.854126	972.111450	-183.559387	605.407043	983.705383	-294.203186	742.040527	718.546265	-59.041962	776.623047	651.203125	-98.213737	723.563477	591.420776	-84.426598	814.221985	727.108887	-158.229065	777.988281	672.466919	-214.204498	789.082092	596.234924	-171.446960	669.455200	448.460510	-223.186630	698.546631	451.382019	-105.956772	689.601135	333.009186	-187.130722	697.233093	269.217682	-120.581779	677.541443	202.693466	-176.199722	662.070190	351.555725	-85.601616	605.136902	288.710632	-107.690491	657.873718	221.966003	-101.700882	650.030212	107.438484	-204.608917	634.747986	88.073524	-123.882294	577.984436	67.498367	-169.392410	783.287109	48.108673	-199.348236	790.992981	57.377243	-158.727722	770.673279	46.971264	-105.943253	777.484131	54.903976	-306.623138	781.819092	56.908222	-359.999634	754.173889	38.850491	-402.275238	573.989319	64.310028	-323.009491	645.114014	98.124901	-286.409149	626.120056	95.298126	-363.856262	699.119934	371.127655	-303.788177	712.635864	305.000061	-355.133514	678.362061	241.523743	-309.593506	659.557678	315.758545	-407.192780	602.193237	255.782150	-379.962402	649.945862	186.454819	-381.195770	671.408875	437.111084	-275.723480	682.285828	450.939728	-395.162048	684.846191	735.771912	-439.244080	741.554749	675.802551	-417.136292	695.223999	607.570374	-409.924805	793.238647	809.130371	-396.610077	809.387939	740.408875	-341.584412	780.942444	671.679321	-390.814636	688.416870	1403.368164	-390.065277	766.902771	1284.664429	-399.608612	616.260376	1246.606689	-385.797028	675.021729	1291.992798	-474.056152	748.213806	1290.790405	-516.146362	754.678345	1203.199829	-537.944214	822.715149	1130.889526	-535.719116	822.956787	1165.998901	-586.917847	901.886902	1107.668091	-653.222046	945.286072	1139.421875	-623.071411	907.335999	1144.991455	-636.057922	988.650452	1064.481445	-699.732605	1024.426270	1065.665649	-648.323853	659.606384	1398.331543	-108.342812	751.036743	1289.838257	-107.134262	614.553406	1245.350220	-101.438438	650.322021	1288.762817	-29.341953	717.085022	1296.343262	23.153111	723.415039	1215.247070	55.698277	784.057556	1125.573853	58.934456	793.415100	1175.620239	112.028465	892.764404	1098.916016	180.880829	897.372498	1142.601563	156.439407	934.879211	1134.082397	137.478485	961.110901	1065.653442	210.265244	1009.317017	1082.171875	164.560318	635.617035	96.711514	-325.132706	642.389099	97.756004	-164.245605	822.835968	1148.444214	-561.318481	788.736328	1150.597046	85.481461	708.384779	865.202663	-341.903639	710.449656	861.079052	-147.926720	676.847351	444.025406	-335.442764	684.000916	449.921265	-164.571701	691.581573	1265.635559	-392.702820	682.795074	1267.594238	-104.286350	1006.538361	1065.073547	-674.028229	985.213959	1073.912659	187.412781	
